<svg id="illustration-mobile-phone" xmlns="http://www.w3.org/2000/svg" viewBox="0 0 829.93 547.819">
  <g style="isolation:isolate">
    <path d="m31.287 238.74.099-34.852c-.018 6.236 4.072 12.481 12.261 17.209l-.099 34.852c-8.189-4.728-12.278-10.973-12.261-17.209ZM829.93 360.008l-.099 34.852c-.011 6.156-4.031 12.302-12.062 16.969l.099-34.852c8.03-4.667 12.05-10.813 12.068-16.969Zm-12.068 16.969-.099 34.852L595.88 540.773l.1-34.852 221.88-128.944zM536.975 505.92l-.1 34.853L43.549 255.949l.099-34.851 493.328 284.823z" fill="#001752"/>
    <path d="M817.669 342.799c16.272 9.395 16.359 24.783.193 34.178L595.98 505.92c-16.166 9.396-42.732 9.396-59.005 0L43.647 221.099c-16.272-9.395-16.36-24.783-.192-34.178L265.337 57.976c16.166-9.395 42.732-9.395 59.005 0L817.67 342.799Z" fill="gray"/>
    <path d="m595.98 505.921-.099 34.852c-16.166 9.395-42.732 9.395-59.005 0l.099-34.852c16.272 9.395 42.838 9.395 59.005 0Z" fill="#001752"/>
  </g>
  <path d="M816.74 341.435c16.833 9.719 17.657 25.048 1.832 34.244L595.17 505.506c-15.824 9.196-42.29 8.769-59.124-.95L44.465 220.742c-16.82-9.71-17.644-25.04-1.82-34.237L266.047 56.678c15.824-9.196 42.291-8.769 59.112.942l491.575 283.815Z" fill="#e4e9ef"/>
  <path d="M228.72 111.511c2.589 1.494 2.602 3.939.031 5.434l-68.58 39.854c-2.572 1.495-6.792 1.495-9.381 0s-2.603-3.94-.031-5.434l68.58-39.854c2.572-1.495 6.792-1.495 9.381 0ZM425.664 212.66c5.809 3.354 6.093 8.643.632 11.817l-77.091 44.8c-5.461 3.173-14.594 3.026-20.402-.328l-11.883-6.889c-5.804-3.351-6.089-8.641-.628-11.814l77.091-44.8c5.461-3.173 14.594-3.026 20.398.325l11.883 6.89Z" fill="#001752"/>
  <path d="m400.072 229.711-4.228 2.349-5.58-3.345-17.113-3.638 4.64-2.58 10.093 2.35-3.86-5.813 4.838-2.688 5.63 10.02 5.58 3.345z" fill="#fff"/>
  <path d="M354.395 242.487c-.749-.429-1.924-.38-2.786.122l-2.801 1.631 2.598 1.487 2.801-1.631c.862-.502.937-1.181.187-1.61Zm7.035 3.23c-.8-.458-2.02-.41-2.926.117l-3.425 1.995 2.748 1.573 3.425-1.995c.905-.527.977-1.232.177-1.69Z" fill="#001752"/>
  <path d="M366.563 243.68c-1.899-1.087-4.535-1.426-7.108-.909.568-1.168-.127-2.436-1.801-3.394-2.498-1.43-6.283-1.332-9.105.312l-7.972 4.64 17.164 9.818 8.274-4.817c3.016-1.757 3.298-4.083.549-5.656Zm-12.356.417-2.801 1.631-2.598-1.487 2.801-1.631c.862-.502 2.037-.551 2.786-.122.75.429.675 1.108-.187 1.61Zm7.046 3.311-3.425 1.995-2.748-1.573 3.425-1.995c.905-.527 2.126-.575 2.926-.117.799.458.728 1.163-.177 1.69Zm19.236-6.43c-4.184 2.324-10.362 2.019-14.954-.734l-9.43-5.652 4.226-2.35 9.184 5.504c2.173 1.303 4.927 1.571 6.627.626 1.7-.945 1.344-2.544-.829-3.847l-9.185-5.506 4.228-2.348 9.432 5.654c4.593 2.753 4.885 6.327.701 8.652Z" fill="#fff"/>
  <path d="M236.486 286.29 446.16 165.199 320.48 92.636 110.805 213.729l125.682 72.561z" fill="#faf1e4"/>
  <path d="M642.885 341.763c5.809 3.354 6.093 8.643.632 11.817l-77.091 44.8c-5.461 3.173-14.594 3.026-20.402-.328l-11.883-6.889c-5.804-3.351-6.09-8.641-.628-11.814l77.09-44.8c5.462-3.173 14.595-3.026 20.399.325l11.883 6.889Z" fill="#001752"/>
  <path d="m617.293 358.814-4.227 2.349-5.58-3.345-17.114-3.638 4.641-2.58 10.093 2.35-3.86-5.813 4.838-2.688 5.63 10.02 5.579 3.345z" fill="#fff"/>
  <path d="M571.616 371.59c-.749-.429-1.924-.38-2.786.122l-2.801 1.631 2.598 1.487 2.801-1.631c.862-.502.937-1.181.187-1.61Zm7.036 3.231c-.8-.452-2.02-.404-2.926.12l-3.425 1.998 2.748 1.573 3.42-1.994c.904-.526.976-1.23.176-1.69Z" fill="#001752"/>
  <path d="M583.784 372.783c-1.899-1.087-4.535-1.426-7.108-.909.568-1.168-.127-2.436-1.801-3.394-2.498-1.43-6.283-1.332-9.105.312l-7.972 4.643 17.164 9.822 8.274-4.818c3.016-1.757 3.298-4.083.549-5.656Zm-12.356.417-2.801 1.631-2.598-1.481 2.801-1.631c.862-.502 2.037-.551 2.786-.122.75.429.675 1.108-.187 1.61Zm7.046 3.311-3.425 2-2.75-1.572 3.422-1.995c.905-.527 2.126-.575 2.926-.117.8.459.728 1.164-.177 1.69Zm19.236-6.43c-4.184 2.329-10.362 2.02-14.954-.73l-9.43-5.651 4.226-2.35 9.184 5.504c2.173 1.3 4.927 1.569 6.627.624 1.7-.945 1.344-2.544-.829-3.847l-9.185-5.506 4.228-2.348 9.432 5.654c4.593 2.753 4.885 6.327.701 8.652Z" fill="#fff"/>
  <path d="m453.708 415.393 209.673-121.09-125.679-72.563-209.676 121.092 125.682 72.56z" fill="#faf1e4"/>
  <path d="M549.163 279.503v38.935l-67.196-.14-.249-38.935 67.445.14z" fill="#808b99"/>
  <path d="M482.216 357.233c-37.242-.083-67.796-17.573-67.93-39.075v-38.935c.045 7.04 3.322 13.652 9.02 19.362.045.045.083.083.128.121 2.964 2.945 6.567 5.647 10.7 8.037 12.194 7.071 29.02 11.479 47.584 11.555h.249l.249 38.935Z" fill="#a6b6c8"/>
  <path d="m481.718 279.363.249 38.935h-.249c-18.564-.076-35.39-4.484-47.584-11.555-4.133-2.389-7.736-5.091-10.7-8.037-.045-.038-.083-.077-.128-.121-5.698-5.71-8.975-12.322-9.02-19.362-.134-21.509 29.947-38.871 67.19-38.795 37.247.077 67.552 17.574 67.687 39.076l-67.445-.141Z" fill="#b9cbdf"/>
  <path d="M555.685 285.747v.205c0 1.278-.115 2.542-.326 3.795-2.9 17.004-24.798 30.726-53.308 34.029-4.382.511-8.918.773-13.562.76l-.243-38.929 67.438.14Z" fill="#26408b"/>
  <path d="M555.704 324.752a22.323 22.323 0 0 1-.326 3.986c-2.893 16.953-24.715 30.63-53.142 33.926-4.363.505-8.885.767-13.51.754l-.25-38.807h.109l-.096-.077c4.644.013 9.18-.249 13.562-.76 28.51-3.303 50.408-17.024 53.309-34.029a22.91 22.91 0 0 0 .325-3.795l.019 38.801Z" fill="#001752"/>
  <path d="m174.57 89.267-99.999 57.735M14.529 251.125v22.952M.295 263.67l14.234 10.407 14.234-10.407M14.51 251.332v-46.199s.005-23.467 20.01-35.016l40.036-23.115" fill="none" stroke="#1b2c67" stroke-miterlimit="10"/>
  <path d="M17.572 242.77a3.044 3.044 0 1 1-6.088 0 3.044 3.044 0 0 1 6.088 0" fill="#26408b"/>
  <path d="m513.95 215.484-7.609 4.393v9.33c-7.374 5.978-11.923 14.763-11.923 23.64 0 3.602 1.012 5.813 2.587 7.177v.006l.014.01c.615.53 1.318.927 2.078 1.231l5.93 3.512 2.561-2.522c4.081.05 7.539.28 7.539 4.086 0 4.166-1.962 7.382-6.354 9.918-3.765 2.174-7.217 2.355-11.217 1.223l-5.02 11.865c3.687 1.766 9.178.951 13.806-1.087v9.058l7.354 4.246 4.637-6.472-.212-5.024-4.17-.638v-3.979l8.304-5.483 7.006-12.209-2.165-6.74 3.453-5.698-8.256-4.844-.003.006c-3.393-1.885-8.312-1.15-11.957-1.27l-.102-1.624c.484-2.897 1.016-6.048 1.016-6.048l7.713-5.647c.29.115.58.236.875.378l.88-1.663h.001l7.544-3.076 4.733-1.98-7.354-4.246c-3.059-1.947-6.668-2.762-11.688-.679v-9.152Z" fill="#bca141"/>
  <path d="m513.95 215.484-7.609 4.393v9.33c-7.374 5.978-11.923 14.763-11.923 23.64 0 3.602 1.012 5.813 2.587 7.177v.006l.014.01c.615.53 1.318.927 2.078 1.231l5.93 3.512 2.561-2.522c.129 0 .251.007.378.01l-.624-10.419 3.08-5.409.823-4.899 7.713-5.647c.289.115.579.236.875.378l.88-1.663h.001l7.544-3.076 4.734-1.975-7.354-4.246c-3.06-1.947-6.668-2.762-11.688-.679v-9.15Z" fill="#d8d0c4"/>
  <path d="m510.422 246.44-3.079 5.408.624 10.418c2.794.044 5.244.232 6.42 1.676l1.264-3.287 11.6.847-.155-.482 3.453-5.698-8.256-4.844-.003.006c-3.393-1.885-8.312-1.15-11.957-1.27l-.102-1.624.192-1.148Z" fill="#d8d0c4"/>
  <path d="m527.1 261.011-12.352.845-.846 1.608c.768.602 1.224 1.505 1.224 2.88 0 4.165-1.962 7.381-6.354 9.917-3.765 2.181-7.217 2.362-11.217 1.23l-5.02 11.864c3.687 1.766 9.178.951 13.806-1.087v9.058l7.354 4.247 4.637-6.472-.212-5.025-4.17-.638v-3.979l8.304-5.483 7.006-12.209-2.165-6.74.006-.009Z" fill="#d8d0c4"/>
  <path d="m506.341 294.431 7.354-1.923v9.058l-7.354-4.246v-2.889Z" fill="#d8d0c4"/>
  <path d="m513.695 301.566 7.609-4.393v-9.42c8.08-6.657 12.237-15.76 12.237-24.456.006-17.3-20.703-4.62-20.703-13.224 0-4.076 2.04-6.974 5.805-9.148 3.295-1.902 5.726-1.766 8.55-.408l5.806-10.96c-3.06-1.947-6.668-2.762-11.688-.679v-9.148l-7.61 4.393v9.329c-7.373 5.978-11.922 14.764-11.922 23.641 0 16.304 20.709 4.166 20.709 13.496 0 4.166-1.961 7.382-6.354 9.918-3.765 2.174-7.217 2.355-11.217 1.223l-5.02 11.866c3.687 1.766 9.178.951 13.806-1.087v9.058Z" fill="#f1e8db"/>
  <path d="m521.304 219.73-7.354-4.246-7.61 4.393 7.355 4.246 7.609-4.393Z" fill="#d8d0c4"/>
  <path d="m504.91 281.73-7.354-4.246-5.02 11.865 7.354 4.246 5.02-11.866Zm8.785-48.278-7.354-4.245v-9.33l7.354 4.246v9.33Z" fill="#aca498"/>
  <path d="M383.537 30.003v5.825l51.52 28.112.114-5.106-51.634-28.831z" fill="#99a703"/>
  <path d="M435.171 58.834 432.733 0l-49.196 30.003 13.62 7.605-35.2 68.16-2.088-45.167-19.11 35.681 1.69 41.723 2.247 1.185-.105.202 20.063 11.566 56.191-100.123 14.326 8z" fill="#def204"/>
  <path d="m359.869 60.601-22.128-12.654-71.518 138.48 20.063 11.566L340.76 96.282l19.11-35.681z" fill="#def204"/>
  <path d="m286.343 196.924-21.52-11.36-1.69-41.722 19.11-35.681-22.13-12.654-71.517 138.48 20.062 11.566 73.584-137.392 4.1 88.763" fill="#def204"/>
  <path d="m364.654 150.958-4.785-90.12-19.11 35.68 1.69 41.723 14.37 8.31 7.835 4.41zm-77.7 47.454-4.785-90.121-19.109 35.681 1.69 41.723 22.204 12.717z" fill="#99a703"/>
</svg>
